<?xml version="1.0" encoding="utf-8"?>
<!-- Generator: Adobe Illustrator 25.4.1, SVG Export Plug-In . SVG Version: 6.00 Build 0)  -->
<svg version="1.1" id="图层_1" xmlns="http://www.w3.org/2000/svg" xmlns:xlink="http://www.w3.org/1999/xlink" x="0px" y="0px"
	 viewBox="0 0 1920 1080" style="enable-background:new 0 0 1920 1080;" xml:space="preserve">
<style type="text/css">
	.st0{fill:#FEFEFE;}
	.st1{fill:#4BAD4F;}
	.st2{fill:#C7E5C8;}
	.st3{fill:#F34235;}
	.st4{fill:#4A454B;}
	.st5{fill:#4C454B;}
	.st6{fill:#47454B;}
</style>
<g>
	<g>
		<path class="st0" d="M959.6,588c-15.1,0-30.2,0-45.3,0c-1.8,0-2.3-0.3-2.3-2.3c0.1-30.4,0.1-60.9,0-91.3c0-2.2,0.6-2.4,2.6-2.4
			c30.3,0.1,60.6,0.1,90.9,0c2,0,2.5,0.3,2.5,2.5c-0.1,30.3-0.1,60.6,0,90.9c0,2.4-0.7,2.6-2.8,2.6C990,587.9,974.8,588,959.6,588z"
			/>
		<path class="st1" d="M922,539.9c0.1-20.7,17.4-37.9,38-37.9c20.8,0,38.3,17.7,38,38.3c-0.3,20.9-17.6,37.9-38.2,37.7
			C939,577.8,921.9,560.5,922,539.9z"/>
		<path class="st2" d="M959.9,573.8c-19,0-33.8-15-33.7-34.1c0.1-18.8,15-33.6,33.8-33.6c19,0,33.8,15,33.7,34.1
			C993.7,559,978.8,573.8,959.9,573.8z"/>
		<path class="st3" d="M960,510c16.5,0,30,13.5,29.9,30.1c0,16.5-13.6,29.9-30.2,29.8c-16.3-0.1-29.7-13.5-29.7-29.9
			C930,523.5,943.5,510,960,510z"/>
		<path class="st4" d="M952.7,555.7c-0.4,1.2-0.5,3.1-2.7,3c-1.1,0-1.9-0.9-1.7-2c0.2-1.8,1.9-2.1,3.3-2.5
			C952.3,554.1,953,554.2,952.7,555.7z"/>
		<path class="st4" d="M969.7,558.7c-1.8-0.2-2-1.8-2.4-3.2c-0.3-0.9,0-1.5,1-1.3c1.5,0.3,3.3,0.6,3.5,2.6
			C971.8,558,971,558.7,969.7,558.7z"/>
		<path class="st5" d="M948.4,531.7c-0.1,1.3-1.3,1.2-2.2,1.4c-1.4,0.2-2.5-0.1-2.7-1.8c-0.1-1.2,0.5-1.9,1.7-1.9
			C946.8,529.3,947.7,530.3,948.4,531.7z"/>
		<path class="st5" d="M974.7,529.4c1.2,0,1.9,0.6,1.9,1.8c-0.1,1.6-1.2,2.1-2.6,1.9c-0.9-0.1-2.4,0-2.2-1.3
			C971.9,530.3,973.1,529.4,974.7,529.4z"/>
		<path class="st4" d="M944.1,538.1c1.3,0.5,3,0.5,3,1.9c-0.1,1.6-1.9,1.8-3.1,1.9c-1,0.1-1.9-0.6-1.9-1.8
			C942.1,538.6,943.1,538.3,944.1,538.1z"/>
		<path class="st4" d="M975.8,541.9c-1.1-0.4-2.9-0.4-2.9-1.8c0-1.7,1.8-1.8,3-1.9c1-0.2,1.9,0.6,1.9,1.7
			C978,541.3,977,541.8,975.8,541.9z"/>
		<path class="st5" d="M945.5,550.6c-1.2,0-2-0.4-2-1.7c0-1.6,0.9-2.2,2.3-2.1c1,0.1,2.6,0,2.4,1.4
			C948.2,549.6,946.9,550.5,945.5,550.6z"/>
		<path class="st5" d="M974.7,550.7c-1.6-0.2-2.9-1-3-2.4c-0.1-1.4,1.5-1.3,2.4-1.4c1.4-0.1,2.4,0.5,2.3,2.1
			C976.5,550.2,975.7,550.6,974.7,550.7z"/>
		<path class="st6" d="M952.8,524.7c0.2,1.3-0.8,1.2-1.4,1c-1.3-0.3-2.8-0.6-2.7-2.5c0.1-1.1,0.7-2,2-1.7
			C952.2,521.9,952.4,523.4,952.8,524.7z"/>
		<path class="st6" d="M971.4,523.5c-0.4,1.8-1.8,2-3.1,2.2c-1.1,0.2-1.3-0.5-1-1.4c0.4-1.3,0.7-2.8,2.4-2.9
			C970.9,521.5,971.3,522.5,971.4,523.5z"/>
	</g>
</g>
</svg>
